<?xml version="1.0" encoding="utf-8"?>
<!-- Generator: Adobe Illustrator 24.1.3, SVG Export Plug-In . SVG Version: 6.00 Build 0)  -->
<svg version="1.1" id="Layer_1" xmlns="http://www.w3.org/2000/svg" xmlns:xlink="http://www.w3.org/1999/xlink" x="0px" y="0px"
	 viewBox="0 0 800 800" style="enable-background:new 0 0 800 800;" xml:space="preserve">
<style type="text/css">
	.st0{fill:#ffffff;}
</style>
<g>
	<g>
		<path class="st0" d="M133.34,786.62H14.06c0-30.77,8.23-54.38,24.68-70.83c16.45-16.45,36.25-24.68,59.41-24.68h35.19
			c26.81,0,49.65-9.67,68.55-29.02c18.89-19.34,28.34-42.42,28.34-69.24V486.37c0-24.07,8.68-44.79,26.05-62.15
			c17.37-17.36,41.89-26.05,73.58-26.05v194.68c0,53.63-19.27,99.33-57.81,137.1C233.49,767.73,187.26,786.62,133.34,786.62z"/>
	</g>
	<g>
		<g>
			<path class="st0" d="M588.64,786.62c-53.93,0-100.09-18.89-138.47-56.67c-38.39-37.77-57.58-83.47-57.58-137.1
				c0-53.62,19.19-99.47,57.58-137.56c38.39-38.08,84.55-57.12,138.47-57.12s100.16,19.04,138.7,57.12
				c38.54,38.09,57.81,83.94,57.81,137.56c0,53.63-19.27,99.33-57.81,137.1C688.8,767.73,642.57,786.62,588.64,786.62z
				 M588.64,493.68c-27.12,0-49.97,9.75-68.55,29.25c-18.59,19.5-27.88,42.81-27.88,69.92c0,26.81,9.37,49.89,28.11,69.24
				c18.74,19.35,41.51,29.02,68.32,29.02c26.81,0,49.66-9.67,68.55-29.02c18.89-19.34,28.33-42.42,28.33-69.24
				c0-27.11-9.45-50.42-28.33-69.92C638.3,503.44,615.45,493.68,588.64,493.68z"/>
		</g>
	</g>
	<path class="st0" d="M372.25,493.68c-33.96-203.77,14.54-381.41,194.37-381.41c132.06-2.48,193.32-6.29,192.26-99.27
		c20.13,58.09,20.12,112.47-36.57,146.29c15.54,0.25,31.43-7.98,42.38-21.67C714.05,294.35,611.29,286,518.55,313.43
		C462.01,330.15,414.05,370.9,372.25,493.68z"/>
</g>
</svg>
